<svg xmlns="http://www.w3.org/2000/svg" width="30" height="30" viewBox="0 0 30 30">
  <path id="Logo" d="M112.2,231H93.8a5.8,5.8,0,0,0-5.8,5.8V255.2a5.8,5.8,0,0,0,5.8,5.8h18.4a5.8,5.8,0,0,0,5.8-5.8V236.8A5.8,5.8,0,0,0,112.2,231Zm1.663,3.458.663,0v5.084l-5.068.016-.017-5.085Zm-15.147,8.462a5.272,5.272,0,1,1-1,3.08A5.277,5.277,0,0,1,98.718,242.919ZM115.077,255.2a2.877,2.877,0,0,1-2.875,2.874H93.8a2.877,2.877,0,0,1-2.875-2.874V242.919H95.4a8.2,8.2,0,1,0,15.2,0h4.48Z" transform="translate(-88 -230.998)" fill="#030000"/>
</svg>
