<svg xmlns="http://www.w3.org/2000/svg" width="16" height="30" viewBox="0 0 16 30">
  <path id="Logo" d="M106.533,342.685a3.376,3.376,0,0,1,.573-.258,5.558,5.558,0,0,1,.644-.193l1.311-.236h.858l6.057.429H116l-.62,5.061h-.024l-3.338-.322h-.1l-.334.043-.119.043-.381.171a.315.315,0,0,0-.191.107l-.286.279a1.1,1.1,0,0,0-.167.257,1.522,1.522,0,0,0-.119.279,1.906,1.906,0,0,0-.071.322,2.008,2.008,0,0,0-.024.322l.048,3.173,4.912.044-.715,5.018-4.244.149v14.6L110.2,372h-6.629V357.245H100v-5.039h3.433v-.044l.024-.064.119-5.383.047-.3v-.15l.048-.15a1.094,1.094,0,0,1,.1-.323.944.944,0,0,1,.143-.278,2.226,2.226,0,0,1,.262-.579,2.885,2.885,0,0,1,.358-.535,2.7,2.7,0,0,1,.405-.451,4.024,4.024,0,0,1,.453-.429V343.5Z" transform="translate(-100 -341.998)"/>
</svg>
